  0
SECTION
  2
HEADER
  9
$ACADVER
  1
AC1015
  9
$ACADMAINTVER
 70
     6
  9
$DWGCODEPAGE
  3
ANSI_936
  9
$INSBASE
 10
0.0
 20
0.0
 30
0.0
  9
$EXTMIN
 10
3770.186625612478
 20
-441.259620837513
 30
-0.0044550517764606
  9
$EXTMAX
 10
4592.882382720455
 20
381.22864427797
 30
145.9987306523863
  9
$LIMMIN
 10
0.0
 20
0.0
  9
$LIMMAX
 10
420.0
 20
297.0
  9
$ORTHOMODE
 70
     0
  9
$REGENMODE
 70
     1
  9
$FILLMODE
 70
     1
  9
$QTEXTMODE
 70
     0
  9
$MIRRTEXT
 70
     1
  9
$LTSCALE
 40
1.0
  9
$ATTMODE
 70
     1
  9
$TEXTSIZE
 40
2.5
  9
$TRACEWID
 40
1.0
  9
$TEXTSTYLE
  7
Standard
  9
$CLAYER
  8
0
  9
$CELTYPE
  6
ByLayer
  9
$CECOLOR
 62
   256
  9
$CELTSCALE
 40
1.0
  9
$DISPSILH
 70
     0
  9
$DIMSCALE
 40
1.0
  9
$DIMASZ
 40
2.5
  9
$DIMEXO
 40
0.625
  9
$DIMDLI
 40
3.75
  9
$DIMRND
 40
0.0
  9
$DIMDLE
 40
0.0
  9
$DIMEXE
 40
1.25
  9
$DIMTP
 40
0.0
  9
$DIMTM
 40
0.0
  9
$DIMTXT
 40
2.5
  9
$DIMCEN
 40
2.5
  9
$DIMTSZ
 40
0.0
  9
$DIMTOL
 70
     0
  9
$DIMLIM
 70
     0
  9
$DIMTIH
 70
     0
  9
$DIMTOH
 70
     0
  9
$DIMSE1
 70
     0
  9
$DIMSE2
 70
     0
  9
$DIMTAD
 70
     1
  9
$DIMZIN
 70
     8
  9
$DIMBLK
  1

  9
$DIMASO
 70
     1
  9
$DIMSHO
 70
     1
  9
$DIMPOST
  1

  9
$DIMAPOST
  1

  9
$DIMALT
 70
     0
  9
$DIMALTD
 70
     3
  9
$DIMALTF
 40
0.03937007874016
  9
$DIMLFAC
 40
1.0
  9
$DIMTOFL
 70
     1
  9
$DIMTVP
 40
0.0
  9
$DIMTIX
 70
     0
  9
$DIMSOXD
 70
     0
  9
$DIMSAH
 70
     0
  9
$DIMBLK1
  1

  9
$DIMBLK2
  1

  9
$DIMSTYLE
  2
ISO-25
  9
$DIMCLRD
 70
     0
  9
$DIMCLRE
 70
     0
  9
$DIMCLRT
 70
     0
  9
$DIMTFAC
 40
1.0
  9
$DIMGAP
 40
0.625
  9
$DIMJUST
 70
     0
  9
$DIMSD1
 70
     0
  9
$DIMSD2
 70
     0
  9
$DIMTOLJ
 70
     0
  9
$DIMTZIN
 70
     8
  9
$DIMALTZ
 70
     0
  9
$DIMALTTZ
 70
     0
  9
$DIMUPT
 70
     0
  9
$DIMDEC
 70
     2
  9
$DIMTDEC
 70
     2
  9
$DIMALTU
 70
     2
  9
$DIMALTTD
 70
     3
  9
$DIMTXSTY
  7
Standard
  9
$DIMAUNIT
 70
     0
  9
$DIMADEC
 70
     0
  9
$DIMALTRND
 40
0.0
  9
$DIMAZIN
 70
     0
  9
$DIMDSEP
 70
    44
  9
$DIMATFIT
 70
     3
  9
$DIMFRAC
 70
     0
  9
$DIMLDRBLK
  1

  9
$DIMLUNIT
 70
     2
  9
$DIMLWD
 70
    -2
  9
$DIMLWE
 70
    -2
  9
$DIMTMOVE
 70
     0
  9
$LUNITS
 70
     2
  9
$LUPREC
 70
     4
  9
$SKETCHINC
 40
1.0
  9
$FILLETRAD
 40
10.0
  9
$AUNITS
 70
     0
  9
$AUPREC
 70
     0
  9
$MENU
  1
.
  9
$ELEVATION
 40
0.0
  9
$PELEVATION
 40
0.0
  9
$THICKNESS
 40
0.0
  9
$LIMCHECK
 70
     0
  9
$CHAMFERA
 40
10.0
  9
$CHAMFERB
 40
10.0
  9
$CHAMFERC
 40
20.0
  9
$CHAMFERD
 40
0.0
  9
$SKPOLY
 70
     0
  9
$TDCREATE
 40
2452140.699658067
  9
$TDUCREATE
 40
2452140.366324734
  9
$TDUPDATE
 40
2452967.696336921
  9
$TDUUPDATE
 40
2452967.363003587
  9
$TDINDWG
 40
0.0578308333
  9
$TDUSRTIMER
 40
0.0578292708
  9
$USRTIMER
 70
     1
  9
$ANGBASE
 50
0.0
  9
$ANGDIR
 70
     0
  9
$PDMODE
 70
     0
  9
$PDSIZE
 40
0.0
  9
$PLINEWID
 40
0.0
  9
$SPLFRAME
 70
     0
  9
$SPLINETYPE
 70
     6
  9
$SPLINESEGS
 70
     8
  9
$HANDSEED
  5
A47
  9
$SURFTAB1
 70
     6
  9
$SURFTAB2
 70
     6
  9
$SURFTYPE
 70
     6
  9
$SURFU
 70
     6
  9
$SURFV
 70
     6
  9
$UCSBASE
  2

  9
$UCSNAME
  2

  9
$UCSORG
 10
0.0
 20
0.0
 30
0.0
  9
$UCSXDIR
 10
1.0
 20
0.0
 30
0.0
  9
$UCSYDIR
 10
0.0
 20
0.0
 30
1.0
  9
$UCSORTHOREF
  2

  9
$UCSORTHOVIEW
 70
     3
  9
$UCSORGTOP
 10
0.0
 20
0.0
 30
0.0
  9
$UCSORGBOTTOM
 10
0.0
 20
0.0
 30
0.0
  9
$UCSORGLEFT
 10
0.0
 20
0.0
 30
0.0
  9
$UCSORGRIGHT
 10
0.0
 20
0.0
 30
0.0
  9
$UCSORGFRONT
 10
0.0
 20
0.0
 30
0.0
  9
$UCSORGBACK
 10
0.0
 20
0.0
 30
0.0
  9
$PUCSBASE
  2

  9
$PUCSNAME
  2

  9
$PUCSORG
 10
0.0
 20
0.0
 30
0.0
  9
$PUCSXDIR
 10
1.0
 20
0.0
 30
0.0
  9
$PUCSYDIR
 10
0.0
 20
1.0
 30
0.0
  9
$PUCSORTHOREF
  2

  9
$PUCSORTHOVIEW
 70
     0
  9
$PUCSORGTOP
 10
0.0
 20
0.0
 30
0.0
  9
$PUCSORGBOTTOM
 10
0.0
 20
0.0
 30
0.0
  9
$PUCSORGLEFT
 10
0.0
 20
0.0
 30
0.0
  9
$PUCSORGRIGHT
 10
0.0
 20
0.0
 30
0.0
  9
$PUCSORGFRONT
 10
0.0
 20
0.0
 30
0.0
  9
$PUCSORGBACK
 10
0.0
 20
0.0
 30
0.0
  9
$USERI1
 70
     0
  9
$USERI2
 70
     0
  9
$USERI3
 70
     0
  9
$USERI4
 70
     0
  9
$USERI5
 70
     0
  9
$USERR1
 40
0.0
  9
$USERR2
 40
0.0
  9
$USERR3
 40
0.0
  9
$USERR4
 40
0.0
  9
$USERR5
 40
0.0
  9
$WORLDVIEW
 70
     1
  9
$SHADEDGE
 70
     3
  9
$SHADEDIF
 70
    70
  9
$TILEMODE
 70
     1
  9
$MAXACTVP
 70
    64
  9
$PINSBASE
 10
0.0
 20
0.0
 30
0.0
  9
$PLIMCHECK
 70
     0
  9
$PEXTMIN
 10
1.000000000000000E+20
 20
1.000000000000000E+20
 30
1.000000000000000E+20
  9
$PEXTMAX
 10
-1.000000000000000E+20
 20
-1.000000000000000E+20
 30
-1.000000000000000E+20
  9
$PLIMMIN
 10
0.0
 20
0.0
  9
$PLIMMAX
 10
420.0
 20
297.0
  9
$UNITMODE
 70
     0
  9
$VISRETAIN
 70
     1
  9
$PLINEGEN
 70
     0
  9
$PSLTSCALE
 70
     1
  9
$TREEDEPTH
 70
  3020
  9
$CMLSTYLE
  2
Standard
  9
$CMLJUST
 70
     0
  9
$CMLSCALE
 40
20.0
  9
$PROXYGRAPHICS
 70
     1
  9
$MEASUREMENT
 70
     0
  9
$CELWEIGHT
370
    -1
  9
$ENDCAPS
280
     0
  9
$JOINSTYLE
280
     0
  9
$LWDISPLAY
290
     0
  9
$INSUNITS
 70
    13
  9
$HYPERLINKBASE
  1

  9
$STYLESHEET
  1

  9
$XEDIT
290
     1
  9
$CEPSNTYPE
380
     0
  9
$PSTYLEMODE
290
     1
  9
$FINGERPRINTGUID
  2
{FE8B5734-E085-4652-9C5E-7C7B99B3B683}
  9
$VERSIONGUID
  2
{FC794AE2-B742-45F4-99E6-EB59935DEE08}
  9
$EXTNAMES
290
     1
  9
$PSVPSCALE
 40
0.0
  9
$OLESTARTUP
290
     0
  0
ENDSEC
  0
SECTION
  2
CLASSES
  0
CLASS
  1
ACDBDICTIONARYWDFLT
  2
AcDbDictionaryWithDefault
  3
AutoCAD 2000
 90
        0
280
     0
281
     0
  0
CLASS
  1
ACDBPLACEHOLDER
  2
AcDbPlaceHolder
  3
AutoCAD 2000
 90
        0
280
     0
281
     0
  0
CLASS
  1
LAYOUT
  2
AcDbLayout
  3
AutoCAD 2000
 90
        0
280
     0
281
     0
  0
ENDSEC
  0
SECTION
  2
TABLES
  0
TABLE
  2
VPORT
  5
8
330
0
100
AcDbSymbolTable
 70
     2
  0
VPORT
  5
A46
330
8
100
AcDbSymbolTableRecord
100
AcDbViewportTableRecord
  2
*Active
 70
     0
 10
0.0
 20
0.0
 11
1.0
 21
1.0
 12
2923.051536015297
 22
1549.600933353913
 13
0.0
 23
0.0
 14
10.0
 24
10.0
 15
10.0
 25
10.0
 16
-1.0
 26
-1.0
 36
1.0
 17
122.495716653891
 27
44.76484995599425
 37
167.2605666098851
 40
799.7240646322023
 41
1.552434456928838
 42
50.0
 43
0.0
 44
0.0
 50
0.0
 51
0.0
 71
     0
 72
   100
 73
     1
 74
     3
 75
     0
 76
     0
 77
     0
 78
     0
281
     0
 65
     1
110
0.0
120
0.0
130
0.0
111
1.0
121
0.0
131
0.0
112
0.0
122
0.0
132
1.0
 79
     3
146
0.0
  0
ENDTAB
  0
TABLE
  2
LTYPE
  5
5
330
0
100
AcDbSymbolTable
 70
     1
  0
LTYPE
  5
14
330
5
100
AcDbSymbolTableRecord
100
AcDbLinetypeTableRecord
  2
ByBlock
 70
     0
  3

 72
    65
 73
     0
 40
0.0
  0
LTYPE
  5
15
330
5
100
AcDbSymbolTableRecord
100
AcDbLinetypeTableRecord
  2
ByLayer
 70
     0
  3

 72
    65
 73
     0
 40
0.0
  0
LTYPE
  5
16
330
5
100
AcDbSymbolTableRecord
100
AcDbLinetypeTableRecord
  2
Continuous
 70
     0
  3
Solid line
 72
    65
 73
     0
 40
0.0
  0
ENDTAB
  0
TABLE
  2
LAYER
  5
2
330
0
100
AcDbSymbolTable
 70
     1
  0
LAYER
  5
10
330
2
100
AcDbSymbolTableRecord
100
AcDbLayerTableRecord
  2
0
 70
     0
 62
     7
  6
Continuous
370
    -3
390
F
  0
ENDTAB
  0
TABLE
  2
STYLE
  5
3
330
0
100
AcDbSymbolTable
 70
     1
  0
STYLE
  5
11
330
3
100
AcDbSymbolTableRecord
100
AcDbTextStyleTableRecord
  2
Standard
 70
     0
 40
0.0
 41
1.0
 50
0.0
 71
     0
 42
2.5
  3
txt
  4

  0
ENDTAB
  0
TABLE
  2
VIEW
  5
6
330
0
100
AcDbSymbolTable
 70
     0
  0
ENDTAB
  0
TABLE
  2
UCS
  5
7
330
0
100
AcDbSymbolTable
 70
     0
  0
ENDTAB
  0
TABLE
  2
APPID
  5
9
330
0
100
AcDbSymbolTable
 70
     1
  0
APPID
  5
12
330
9
100
AcDbSymbolTableRecord
100
AcDbRegAppTableRecord
  2
ACAD
 70
     0
  0
ENDTAB
  0
TABLE
  2
DIMSTYLE
  5
A
330
0
100
AcDbSymbolTable
 70
     1
100
AcDbDimStyleTable
 71
     0
  0
DIMSTYLE
105
27
330
A
100
AcDbSymbolTableRecord
100
AcDbDimStyleTableRecord
  2
ISO-25
 70
     0
 41
2.5
 42
0.625
 43
3.75
 44
1.25
 73
     0
 74
     0
 77
     1
 78
     8
140
2.5
141
2.5
143
0.03937007874016
147
0.625
171
     3
172
     1
271
     2
272
     2
274
     3
278
    44
283
     0
284
     8
340
11
  0
ENDTAB
  0
TABLE
  2
BLOCK_RECORD
  5
1
330
0
100
AcDbSymbolTable
 70
     2
  0
BLOCK_RECORD
  5
1F
330
1
100
AcDbSymbolTableRecord
100
AcDbBlockTableRecord
  2
*Model_Space
340
22
  0
BLOCK_RECORD
  5
1B
330
1
100
AcDbSymbolTableRecord
100
AcDbBlockTableRecord
  2
*Paper_Space
340
1E
  0
BLOCK_RECORD
  5
23
330
1
100
AcDbSymbolTableRecord
100
AcDbBlockTableRecord
  2
*Paper_Space0
340
26
  0
BLOCK_RECORD
  5
91E
330
1
100
AcDbSymbolTableRecord
100
AcDbBlockTableRecord
  2
A$C778B0BDF
340
0
  0
ENDTAB
  0
ENDSEC
  0
SECTION
  2
BLOCKS
  0
BLOCK
  5
20
330
1F
100
AcDbEntity
  8
0
100
AcDbBlockBegin
  2
*Model_Space
 70
     0
 10
0.0
 20
0.0
 30
0.0
  3
*Model_Space
  1

  0
ENDBLK
  5
21
330
1F
100
AcDbEntity
  8
0
100
AcDbBlockEnd
  0
BLOCK
  5
1C
330
1B
100
AcDbEntity
 67
     1
  8
0
100
AcDbBlockBegin
  2
*Paper_Space
 70
     0
 10
0.0
 20
0.0
 30
0.0
  3
*Paper_Space
  1

  0
ENDBLK
  5
1D
330
1B
100
AcDbEntity
 67
     1
  8
0
100
AcDbBlockEnd
  0
BLOCK
  5
24
330
23
100
AcDbEntity
  8
0
100
AcDbBlockBegin
  2
*Paper_Space0
 70
     0
 10
0.0
 20
0.0
 30
0.0
  3
*Paper_Space0
  1

  0
ENDBLK
  5
25
330
23
100
AcDbEntity
  8
0
100
AcDbBlockEnd
  0
BLOCK
  5
942
330
91E
100
AcDbEntity
  8
0
100
AcDbBlockBegin
  2
A$C778B0BDF
 70
     0
 10
0.0
 20
0.0
 30
0.0
  3
A$C778B0BDF
  1

  0
ARC
  5
91F
330
91E
100
AcDbEntity
  8
0
100
AcDbCircle
 10
251.4998238185524
 20
194.2235604111464
 30
0.0
 40
12.62455740015487
100
AcDbArc
 50
119.7007250194928
 51
285.2992749805041
  0
ARC
  5
920
330
91E
100
AcDbEntity
  8
0
100
AcDbCircle
 10
55.94643170993936
 20
194.2235604111464
 30
0.0
 40
12.62455740015487
100
AcDbArc
 50
254.7007250194958
 51
60.29927498049502
  0
ARC
  5
921
330
91E
100
AcDbEntity
  8
0
100
AcDbCircle
 10
192.1365699465527
 20
47.90989207780703
 30
0.0
 40
66.90239994471173
100
AcDbArc
 50
175.96691549259
 51
221.3354277338443
  0
ARC
  5
922
330
91E
100
AcDbEntity
  8
0
100
AcDbCircle
 10
115.3096855819392
 20
47.90989207780703
 30
0.0
 40
66.90239994471173
100
AcDbArc
 50
318.6645722661556
 51
4.033084507409991
  0
ARC
  5
923
330
91E
100
AcDbEntity
  8
0
100
AcDbCircle
 10
153.7231277642461
 20
18.22550758943501
 30
0.0
 40
18.70951842041469
100
AcDbArc
 50
230.8171681101032
 51
309.1828318898977
  0
ARC
  5
924
330
91E
100
AcDbEntity
  8
0
100
AcDbCircle
 10
259.5363625078596
 20
115.3096846391139
 30
0.0
 40
66.90239994471173
100
AcDbArc
 50
48.66457226616134
 51
94.03308450740977
  0
ARC
  5
925
330
91E
100
AcDbEntity
  8
0
100
AcDbCircle
 10
259.5363625078596
 20
192.1365690037272
 30
0.0
 40
66.90239994471173
100
AcDbArc
 50
265.9669154925901
 51
311.3354277338387
  0
ARC
  5
926
330
91E
100
AcDbEntity
  8
0
100
AcDbCircle
 10
249.5344131578158
 20
57.91184142785074
 30
0.0
 40
18.70951842041469
100
AcDbArc
 50
275.8171681101051
 51
354.1828318898983
  0
ARC
  5
927
330
91E
100
AcDbEntity
  8
0
100
AcDbCircle
 10
201.3819781349127
 20
51.73946553910107
 30
0.0
 40
66.90239994471173
100
AcDbArc
 50
3.664572266159397
 51
49.03308450741405
  0
ARC
  5
928
330
91E
100
AcDbEntity
  8
0
100
AcDbCircle
 10
251.4998238185524
 20
113.2226932316949
 30
0.0
 40
12.62455740015487
100
AcDbArc
 50
74.70072501949582
 51
240.299274980495
  0
ARC
  5
929
330
91E
100
AcDbEntity
  8
0
100
AcDbCircle
 10
55.94643170993936
 20
113.2226932316949
 30
0.0
 40
12.62455740015487
100
AcDbArc
 50
299.7007250195049
 51
105.2992749805041
  0
ARC
  5
92A
330
91E
100
AcDbEntity
  8
0
100
AcDbCircle
 10
113.22269417452
 20
55.94643076711432
 30
0.0
 40
12.62455740015487
100
AcDbArc
 50
344.7007250194996
 51
150.2992749804984
  0
ARC
  5
92B
330
91E
100
AcDbEntity
  8
0
100
AcDbCircle
 10
106.0642773935789
 20
51.73946553910096
 30
0.0
 40
66.90239994471173
100
AcDbArc
 50
130.9669154925859
 51
176.3354277338406
  0
ARC
  5
92C
330
91E
100
AcDbEntity
  8
0
100
AcDbCircle
 10
57.91184237067591
 20
57.91184142785093
 30
0.0
 40
18.70951842041469
100
AcDbArc
 50
185.8171681101016
 51
264.1828318898948
  0
ARC
  5
92D
330
91E
100
AcDbEntity
  8
0
100
AcDbCircle
 10
51.73946648192646
 20
106.0642764507537
 30
0.0
 40
66.90239994471173
100
AcDbArc
 50
273.6645722661548
 51
319.033084507407
  0
ARC
  5
92E
330
91E
100
AcDbEntity
  8
0
100
AcDbCircle
 10
194.2235613539724
 20
55.94643076711432
 30
0.0
 40
12.62455740015487
100
AcDbArc
 50
29.70072501950013
 51
195.2992749805003
  0
ARC
  5
92F
330
91E
100
AcDbEntity
  8
0
100
AcDbCircle
 10
255.7067890465655
 20
106.0642764507537
 30
0.0
 40
66.90239994471173
100
AcDbArc
 50
220.9669154925929
 51
266.3354277338451
  0
ARC
  5
930
330
91E
100
AcDbEntity
  8
0
100
AcDbCircle
 10
18.22550853226016
 20
153.7231268214209
 30
0.0
 40
18.70951842041469
100
AcDbArc
 50
140.817168110098
 51
219.1828318899019
  0
ARC
  5
931
330
91E
100
AcDbEntity
  8
0
100
AcDbCircle
 10
47.90989302063235
 20
192.1365690037275
 30
0.0
 40
66.90239994471173
100
AcDbArc
 50
228.6645722661613
 51
274.0330845074097
  0
ARC
  5
932
330
91E
100
AcDbEntity
  8
0
100
AcDbCircle
 10
47.90989302063235
 20
115.3096846391141
 30
0.0
 40
66.90239994471173
100
AcDbArc
 50
85.96691549259023
 51
131.3354277338386
  0
LINE
  5
933
330
91E
100
AcDbEntity
  8
0
100
AcDbLine
 10
153.7231277642461
 20
113.0298304194788
 30
0.0
 11
153.7231277642461
 21
194.4164232233626
 31
0.0
  0
CIRCLE
  5
934
330
91E
100
AcDbEntity
  8
0
100
AcDbCircle
 10
153.7231277642461
 20
153.7231268214207
 30
0.0
 40
40.69329640194188
  0
LINE
  5
935
330
91E
100
AcDbEntity
  8
0
100
AcDbLine
 10
113.0298313623043
 20
153.7231268214207
 30
0.0
 11
194.4164241661878
 21
153.7231268214207
 31
0.0
  0
ARC
  5
936
330
91E
100
AcDbEntity
  8
0
100
AcDbCircle
 10
289.2207469962318
 20
153.7231268214204
 30
0.0
 40
18.70951842041469
100
AcDbArc
 50
320.817168110098
 51
39.18283188990193
  0
ARC
  5
937
330
91E
100
AcDbEntity
  8
0
100
AcDbCircle
 10
201.3819781349127
 20
255.7067881037406
 30
0.0
 40
66.90239994471173
100
AcDbArc
 50
310.9669154925859
 51
356.3354277338406
  0
ARC
  5
938
330
91E
100
AcDbEntity
  8
0
100
AcDbCircle
 10
249.5344131578158
 20
249.5344122149907
 30
0.0
 40
18.70951842041469
100
AcDbArc
 50
5.817168110101635
 51
84.1828318898948
  0
ARC
  5
939
330
91E
100
AcDbEntity
  8
0
100
AcDbCircle
 10
192.1365699465527
 20
259.5363615650345
 30
0.0
 40
66.90239994471173
100
AcDbArc
 50
138.6645722661556
 51
184.0330845074116
  0
ARC
  5
93A
330
91E
100
AcDbEntity
  8
0
100
AcDbCircle
 10
115.3096855819392
 20
259.5363615650345
 30
0.0
 40
66.90239994471173
100
AcDbArc
 50
355.9669154925899
 51
41.33542773384433
  0
ARC
  5
93B
330
91E
100
AcDbEntity
  8
0
100
AcDbCircle
 10
113.22269417452
 20
251.4998228757272
 30
0.0
 40
12.62455740015487
100
AcDbArc
 50
209.7007250195015
 51
15.2992749804956
  0
ARC
  5
93C
330
91E
100
AcDbEntity
  8
0
100
AcDbCircle
 10
106.0642773935789
 20
255.7067881037403
 30
0.0
 40
66.90239994471173
100
AcDbArc
 50
183.6645722661593
 51
229.033084507414
  0
ARC
  5
93D
330
91E
100
AcDbEntity
  8
0
100
AcDbCircle
 10
57.91184237067591
 20
249.5344122149907
 30
0.0
 40
18.70951842041469
100
AcDbArc
 50
95.81716811010521
 51
174.1828318898967
  0
ARC
  5
93E
330
91E
100
AcDbEntity
  8
0
100
AcDbCircle
 10
51.73946648192646
 20
201.3819771920876
 30
0.0
 40
66.90239994471173
100
AcDbArc
 50
40.966915492593
 51
86.33542773384517
  0
ARC
  5
93F
330
91E
100
AcDbEntity
  8
0
100
AcDbCircle
 10
194.2235613539717
 20
251.4998228757272
 30
0.0
 40
12.62455740015487
100
AcDbArc
 50
164.7007250194981
 51
330.2992749804984
  0
ARC
  5
940
330
91E
100
AcDbEntity
  8
0
100
AcDbCircle
 10
255.7067890465655
 20
201.3819771920876
 30
0.0
 40
66.90239994471173
100
AcDbArc
 50
93.66457226615482
 51
139.033084507407
  0
ARC
  5
941
330
91E
100
AcDbEntity
  8
0
100
AcDbCircle
 10
153.7231277642465
 20
289.2207460534066
 30
0.0
 40
18.70951842041469
100
AcDbArc
 50
50.81716811010219
 51
129.1828318898978
  0
ENDBLK
  5
943
330
91E
100
AcDbEntity
  8
0
100
AcDbBlockEnd
  0
ENDSEC
  0
SECTION
  2
ENTITIES
  0
CIRCLE
  5
982
330
1F
100
AcDbEntity
  8
0
100
AcDbCircle
 10
4178.53012393757
 20
-32.41638884116003
 30
145.9942749207709
 40
40.69329640194188
  0
CIRCLE
  5
983
330
1F
100
AcDbEntity
  8
0
100
AcDbCircle
 10
4178.53012393757
 20
-32.41638884116003
 30
125.9942749207709
 40
40.69329640194188
  0
CIRCLE
  5
984
330
1F
100
AcDbEntity
  8
0
100
AcDbCircle
 10
4178.53012393757
 20
-32.41638884116003
 30
105.9942749207709
 40
40.69329640194188
  0
CIRCLE
  5
985
330
1F
100
AcDbEntity
  8
0
100
AcDbCircle
 10
4178.53012393757
 20
-32.41638884116003
 30
98.70612352380385
 40
40.69329640194188
  0
ARC
  5
986
330
1F
100
AcDbEntity
  8
0
100
AcDbCircle
 10
4313.923805385658
 20
-32.98562063107562
 30
78.70612352380385
 40
18.70951842041618
100
AcDbArc
 50
320.8171681100943
 51
39.18283188990506
  0
ARC
  5
987
330
1F
100
AcDbEntity
  8
0
100
AcDbCircle
 10
4284.239420897288
 20
-71.39906281338051
 30
78.70612352380385
 40
66.90239994471108
100
AcDbArc
 50
48.6645722661619
 51
94.03308450741041
  0
ARC
  5
988
330
1F
100
AcDbEntity
  8
0
100
AcDbCircle
 10
4284.239420897288
 20
5.427821551235467
 30
78.70612352380385
 40
66.90239994471504
100
AcDbArc
 50
265.9669154925913
 51
311.3354277338374
  0
ARC
  5
989
330
1F
100
AcDbEntity
  8
0
100
AcDbCircle
 10
4276.202882207981
 20
7.514812958652157
 30
78.70612352380385
 40
12.62455740015544
100
AcDbArc
 50
119.7007250194837
 51
285.299274980489
  0
ARC
  5
98A
330
1F
100
AcDbEntity
  8
0
100
AcDbCircle
 10
4276.202882207981
 20
-73.48605422080033
 30
78.70612352380385
 40
12.62455740015492
100
AcDbArc
 50
74.70072501950186
 51
240.2992749805063
  0
ARC
  5
98B
330
1F
100
AcDbEntity
  8
0
100
AcDbCircle
 10
4226.085036524337
 20
68.99804065124823
 30
78.70612352380385
 40
66.90239994471664
100
AcDbArc
 50
310.9669154925954
 51
356.3354277338389
  0
ARC
  5
98C
330
1F
100
AcDbEntity
  8
0
100
AcDbCircle
 10
4226.085036524334
 20
-134.9692819133974
 30
78.70612352380385
 40
66.90239994471887
100
AcDbArc
 50
3.664572266162865
 51
49.03308450740579
  0
ARC
  5
98D
330
1F
100
AcDbEntity
  8
0
100
AcDbCircle
 10
4274.237471547248
 20
62.82566476250048
 30
78.70612352380385
 40
18.70951842041011
100
AcDbArc
 50
5.817168110089268
 51
84.18283188989239
  0
ARC
  5
98E
330
1F
100
AcDbEntity
  8
0
100
AcDbCircle
 10
4274.237471547244
 20
-128.7969060246436
 30
78.70612352380385
 40
18.70951842041547
100
AcDbArc
 50
275.8171681100947
 51
354.1828318899001
  0
ARC
  5
98F
330
1F
100
AcDbEntity
  8
0
100
AcDbCircle
 10
4280.409847435991
 20
14.67322973960096
 30
78.70612352380385
 40
66.90239994470312
100
AcDbArc
 50
93.66457226615176
 51
139.0330845074117
  0
ARC
  5
990
330
1F
100
AcDbEntity
  8
0
100
AcDbCircle
 10
4280.409847435991
 20
-80.64447100175106
 30
78.70612352380385
 40
66.90239994470243
100
AcDbArc
 50
220.9669154925817
 51
266.3354277338403
  0
ARC
  5
991
330
1F
100
AcDbEntity
  8
0
100
AcDbCircle
 10
4218.926619743401
 20
64.79107542323237
 30
78.70612352380385
 40
12.62455740015528
100
AcDbArc
 50
164.7007250194997
 51
330.2992749805032
  0
ARC
  5
992
330
1F
100
AcDbEntity
  8
0
100
AcDbCircle
 10
4218.926619743398
 20
-130.7623166853778
 30
78.70612352380385
 40
12.62455740015364
100
AcDbArc
 50
29.70072501950934
 51
195.2992749805131
  0
ARC
  5
993
330
1F
100
AcDbEntity
  8
0
100
AcDbCircle
 10
4140.012743971368
 20
72.82761411254018
 30
78.70612352380385
 40
66.90239994471098
100
AcDbArc
 50
355.9669154925903
 51
41.33542773384344
  0
ARC
  5
994
330
1F
100
AcDbEntity
  8
0
100
AcDbCircle
 10
4140.012743971364
 20
-138.7988553746862
 30
78.70612352380385
 40
66.90239994471437
100
AcDbArc
 50
318.6645722661548
 51
4.033084507407833
  0
ARC
  5
995
330
1F
100
AcDbEntity
  8
0
100
AcDbCircle
 10
4178.426186153674
 20
102.5119986009128
 30
78.70612352380385
 40
18.70951842041421
100
AcDbArc
 50
50.81716811010771
 51
129.1828318898846
  0
ARC
  5
996
330
1F
100
AcDbEntity
  8
0
100
AcDbCircle
 10
4178.426186153676
 20
-168.4832398630619
 30
78.70612352380385
 40
18.70951842041349
100
AcDbArc
 50
230.8171681101063
 51
309.1828318898813
  0
ARC
  5
997
330
1F
100
AcDbEntity
  8
0
100
AcDbCircle
 10
4216.839628335981
 20
72.82761411253869
 30
78.70612352380385
 40
66.90239994471271
100
AcDbArc
 50
138.6645722661545
 51
184.0330845074097
  0
ARC
  5
998
330
1F
100
AcDbEntity
  8
0
100
AcDbCircle
 10
4216.839628335981
 20
-138.7988553746875
 30
78.70612352380385
 40
66.9023999447112
100
AcDbArc
 50
175.9669154925912
 51
221.335427733844
  0
ARC
  5
999
330
1F
100
AcDbEntity
  8
0
100
AcDbCircle
 10
4137.925752563949
 20
64.79107542322896
 30
78.70612352380385
 40
12.62455740015373
100
AcDbArc
 50
209.7007250195129
 51
15.29927498051034
  0
ARC
  5
99A
330
1F
100
AcDbEntity
  8
0
100
AcDbCircle
 10
4137.925752563948
 20
-130.7623166853812
 30
78.70612352380385
 40
12.62455740015532
100
AcDbArc
 50
344.7007250195031
 51
150.2992749805019
  0
ARC
  5
99B
330
1F
100
AcDbEntity
  8
0
100
AcDbCircle
 10
4076.442524871358
 20
14.67322973960205
 30
78.70612352380385
 40
66.90239994470286
100
AcDbArc
 50
40.9669154925812
 51
86.33542773384043
  0
ARC
  5
99C
330
1F
100
AcDbEntity
  8
0
100
AcDbCircle
 10
4076.442524871359
 20
-80.64447100175101
 30
78.70612352380385
 40
66.9023999447018
100
AcDbArc
 50
273.6645722661518
 51
319.033084507412
  0
ARC
  5
99D
330
1F
100
AcDbEntity
  8
0
100
AcDbCircle
 10
4082.614900760106
 20
62.82566476249411
 30
78.70612352380385
 40
18.70951842041637
100
AcDbArc
 50
95.81716811009725
 51
174.1828318898978
  0
ARC
  5
99E
330
1F
100
AcDbEntity
  8
0
100
AcDbCircle
 10
4082.6149007601
 20
-128.796906024649
 30
78.70612352380385
 40
18.70951842041025
100
AcDbArc
 50
185.8171681100893
 51
264.1828318898951
  0
ARC
  5
99F
330
1F
100
AcDbEntity
  8
0
100
AcDbCircle
 10
4130.767335783015
 20
68.9980406512488
 30
78.70612352380385
 40
66.90239994471902
100
AcDbArc
 50
183.6645722661627
 51
229.0330845074056
  0
ARC
  5
9A0
330
1F
100
AcDbEntity
  8
0
100
AcDbCircle
 10
4130.767335783011
 20
-134.9692819133969
 30
78.70612352380385
 40
66.90239994471693
100
AcDbArc
 50
130.9669154925945
 51
176.3354277338387
  0
ARC
  5
9A1
330
1F
100
AcDbEntity
  8
0
100
AcDbCircle
 10
4080.649490099368
 20
7.514812958651532
 30
78.70612352380385
 40
12.624557400155
100
AcDbArc
 50
254.7007250195018
 51
60.29927498050275
  0
ARC
  5
9A2
330
1F
100
AcDbEntity
  8
0
100
AcDbCircle
 10
4080.649490099367
 20
-73.4860542208009
 30
78.70612352380385
 40
12.62455740015535
100
AcDbArc
 50
299.7007250194912
 51
105.2992749804851
  0
ARC
  5
9A3
330
1F
100
AcDbEntity
  8
0
100
AcDbCircle
 10
4072.61295141006
 20
-71.39906281338255
 30
78.70612352380385
 40
66.90239994471338
100
AcDbArc
 50
85.96691549258974
 51
131.3354277338377
  0
ARC
  5
9A4
330
1F
100
AcDbEntity
  8
0
100
AcDbCircle
 10
4072.61295141006
 20
5.427821551232
 30
78.70612352380385
 40
66.90239994471131
100
AcDbArc
 50
228.6645722661625
 51
274.0330845074111
  0
ARC
  5
9A5
330
1F
100
AcDbEntity
  8
0
100
AcDbCircle
 10
4042.92856692169
 20
-32.98562063107311
 30
78.70612352380385
 40
18.70951842041614
100
AcDbArc
 50
140.8171681100976
 51
219.182831889903
  0
ARC
  5
9A6
330
1F
100
AcDbEntity
  8
0
100
AcDbCircle
 10
4072.61295141006
 20
-71.39906281338255
 30
58.70612352380385
 40
66.90239994471338
100
AcDbArc
 50
85.96691549258974
 51
131.3354277338377
  0
ARC
  5
9A7
330
1F
100
AcDbEntity
  8
0
100
AcDbCircle
 10
4042.92856692169
 20
-32.98562063107311
 30
58.70612352380385
 40
18.70951842041614
100
AcDbArc
 50
140.8171681100976
 51
219.182831889903
  0
ARC
  5
9A8
330
1F
100
AcDbEntity
  8
0
100
AcDbCircle
 10
4080.649490099368
 20
7.514812958651532
 30
58.70612352380385
 40
12.624557400155
100
AcDbArc
 50
254.7007250195018
 51
60.29927498050275
  0
ARC
  5
9A9
330
1F
100
AcDbEntity
  8
0
100
AcDbCircle
 10
4072.61295141006
 20
5.427821551232
 30
58.70612352380385
 40
66.90239994471131
100
AcDbArc
 50
228.6645722661625
 51
274.0330845074111
  0
ARC
  5
9AA
330
1F
100
AcDbEntity
  8
0
100
AcDbCircle
 10
4130.767335783015
 20
68.9980406512488
 30
58.70612352380385
 40
66.90239994471902
100
AcDbArc
 50
183.6645722661627
 51
229.0330845074056
  0
ARC
  5
9AB
330
1F
100
AcDbEntity
  8
0
100
AcDbCircle
 10
4080.649490099367
 20
-73.4860542208009
 30
58.70612352380385
 40
12.62455740015535
100
AcDbArc
 50
299.7007250194912
 51
105.2992749804851
  0
ARC
  5
9AC
330
1F
100
AcDbEntity
  8
0
100
AcDbCircle
 10
4082.614900760106
 20
62.82566476249411
 30
58.70612352380385
 40
18.70951842041637
100
AcDbArc
 50
95.81716811009725
 51
174.1828318898978
  0
ARC
  5
9AD
330
1F
100
AcDbEntity
  8
0
100
AcDbCircle
 10
4130.767335783011
 20
-134.9692819133969
 30
58.70612352380385
 40
66.90239994471693
100
AcDbArc
 50
130.9669154925945
 51
176.3354277338387
  0
ARC
  5
9AE
330
1F
100
AcDbEntity
  8
0
100
AcDbCircle
 10
4076.442524871358
 20
14.67322973960205
 30
58.70612352380385
 40
66.90239994470286
100
AcDbArc
 50
40.9669154925812
 51
86.33542773384043
  0
ARC
  5
9AF
330
1F
100
AcDbEntity
  8
0
100
AcDbCircle
 10
4082.6149007601
 20
-128.796906024649
 30
58.70612352380385
 40
18.70951842041025
100
AcDbArc
 50
185.8171681100893
 51
264.1828318898951
  0
ARC
  5
9B0
330
1F
100
AcDbEntity
  8
0
100
AcDbCircle
 10
4137.925752563949
 20
64.79107542322896
 30
58.70612352380385
 40
12.62455740015373
100
AcDbArc
 50
209.7007250195129
 51
15.29927498051034
  0
ARC
  5
9B1
330
1F
100
AcDbEntity
  8
0
100
AcDbCircle
 10
4076.442524871359
 20
-80.64447100175101
 30
58.70612352380385
 40
66.9023999447018
100
AcDbArc
 50
273.6645722661518
 51
319.033084507412
  0
ARC
  5
9B2
330
1F
100
AcDbEntity
  8
0
100
AcDbCircle
 10
4216.839628335981
 20
72.82761411253869
 30
58.70612352380385
 40
66.90239994471271
100
AcDbArc
 50
138.6645722661545
 51
184.0330845074097
  0
ARC
  5
9B3
330
1F
100
AcDbEntity
  8
0
100
AcDbCircle
 10
4137.925752563948
 20
-130.7623166853812
 30
58.70612352380385
 40
12.62455740015532
100
AcDbArc
 50
344.7007250195031
 51
150.2992749805019
  0
ARC
  5
9B4
330
1F
100
AcDbEntity
  8
0
100
AcDbCircle
 10
4178.426186153674
 20
102.5119986009128
 30
58.70612352380385
 40
18.70951842041421
100
AcDbArc
 50
50.81716811010771
 51
129.1828318898846
  0
ARC
  5
9B5
330
1F
100
AcDbEntity
  8
0
100
AcDbCircle
 10
4216.839628335981
 20
-138.7988553746875
 30
58.70612352380385
 40
66.9023999447112
100
AcDbArc
 50
175.9669154925912
 51
221.335427733844
  0
ARC
  5
9B6
330
1F
100
AcDbEntity
  8
0
100
AcDbCircle
 10
4140.012743971368
 20
72.82761411254018
 30
58.70612352380385
 40
66.90239994471098
100
AcDbArc
 50
355.9669154925903
 51
41.33542773384344
  0
ARC
  5
9B7
330
1F
100
AcDbEntity
  8
0
100
AcDbCircle
 10
4178.426186153676
 20
-168.4832398630619
 30
58.70612352380385
 40
18.70951842041349
100
AcDbArc
 50
230.8171681101063
 51
309.1828318898813
  0
ARC
  5
9B8
330
1F
100
AcDbEntity
  8
0
100
AcDbCircle
 10
4218.926619743401
 20
64.79107542323237
 30
58.70612352380385
 40
12.62455740015528
100
AcDbArc
 50
164.7007250194997
 51
330.2992749805032
  0
ARC
  5
9B9
330
1F
100
AcDbEntity
  8
0
100
AcDbCircle
 10
4140.012743971364
 20
-138.7988553746862
 30
58.70612352380385
 40
66.90239994471437
100
AcDbArc
 50
318.6645722661548
 51
4.033084507407833
  0
ARC
  5
9BA
330
1F
100
AcDbEntity
  8
0
100
AcDbCircle
 10
4280.409847435991
 20
14.67322973960096
 30
58.70612352380385
 40
66.90239994470312
100
AcDbArc
 50
93.66457226615176
 51
139.0330845074117
  0
ARC
  5
9BB
330
1F
100
AcDbEntity
  8
0
100
AcDbCircle
 10
4218.926619743398
 20
-130.7623166853778
 30
58.70612352380385
 40
12.62455740015364
100
AcDbArc
 50
29.70072501950934
 51
195.2992749805131
  0
ARC
  5
9BC
330
1F
100
AcDbEntity
  8
0
100
AcDbCircle
 10
4274.237471547248
 20
62.82566476250048
 30
58.70612352380385
 40
18.70951842041011
100
AcDbArc
 50
5.817168110089268
 51
84.18283188989239
  0
ARC
  5
9BD
330
1F
100
AcDbEntity
  8
0
100
AcDbCircle
 10
4280.409847435991
 20
-80.64447100175106
 30
58.70612352380385
 40
66.90239994470243
100
AcDbArc
 50
220.9669154925817
 51
266.3354277338403
  0
ARC
  5
9BE
330
1F
100
AcDbEntity
  8
0
100
AcDbCircle
 10
4226.085036524337
 20
68.99804065124823
 30
58.70612352380385
 40
66.90239994471664
100
AcDbArc
 50
310.9669154925954
 51
356.3354277338389
  0
ARC
  5
9BF
330
1F
100
AcDbEntity
  8
0
100
AcDbCircle
 10
4274.237471547244
 20
-128.7969060246436
 30
58.70612352380385
 40
18.70951842041547
100
AcDbArc
 50
275.8171681100947
 51
354.1828318899001
  0
ARC
  5
9C0
330
1F
100
AcDbEntity
  8
0
100
AcDbCircle
 10
4276.202882207981
 20
7.514812958652157
 30
58.70612352380385
 40
12.62455740015544
100
AcDbArc
 50
119.7007250194837
 51
285.299274980489
  0
ARC
  5
9C1
330
1F
100
AcDbEntity
  8
0
100
AcDbCircle
 10
4226.085036524334
 20
-134.9692819133974
 30
58.70612352380385
 40
66.90239994471887
100
AcDbArc
 50
3.664572266162865
 51
49.03308450740579
  0
ARC
  5
9C2
330
1F
100
AcDbEntity
  8
0
100
AcDbCircle
 10
4284.239420897288
 20
-71.39906281338051
 30
58.70612352380385
 40
66.90239994471108
100
AcDbArc
 50
48.6645722661619
 51
94.03308450741041
  0
ARC
  5
9C3
330
1F
100
AcDbEntity
  8
0
100
AcDbCircle
 10
4276.202882207981
 20
-73.48605422080033
 30
58.70612352380385
 40
12.62455740015492
100
AcDbArc
 50
74.70072501950186
 51
240.2992749805063
  0
ARC
  5
9C4
330
1F
100
AcDbEntity
  8
0
100
AcDbCircle
 10
4313.923805385658
 20
-32.98562063107562
 30
58.70612352380385
 40
18.70951842041618
100
AcDbArc
 50
320.8171681100943
 51
39.18283188990506
  0
ARC
  5
9C5
330
1F
100
AcDbEntity
  8
0
100
AcDbCircle
 10
4284.239420897288
 20
5.427821551235467
 30
58.70612352380385
 40
66.90239994471504
100
AcDbArc
 50
265.9669154925913
 51
311.3354277338374
  0
ARC
  5
9C6
330
1F
100
AcDbEntity
  8
0
100
AcDbCircle
 10
4072.61295141006
 20
-71.39906281338255
 30
50.0
 40
66.90239994471338
100
AcDbArc
 50
85.96691549258974
 51
131.3354277338377
  0
ARC
  5
9C7
330
1F
100
AcDbEntity
  8
0
100
AcDbCircle
 10
4042.92856692169
 20
-32.98562063107311
 30
50.0
 40
18.70951842041614
100
AcDbArc
 50
140.8171681100976
 51
219.182831889903
  0
ARC
  5
9C8
330
1F
100
AcDbEntity
  8
0
100
AcDbCircle
 10
4080.649490099368
 20
7.514812958651532
 30
50.0
 40
12.624557400155
100
AcDbArc
 50
254.7007250195018
 51
60.29927498050275
  0
ARC
  5
9C9
330
1F
100
AcDbEntity
  8
0
100
AcDbCircle
 10
4072.61295141006
 20
5.427821551232
 30
50.0
 40
66.90239994471131
100
AcDbArc
 50
228.6645722661625
 51
274.0330845074111
  0
ARC
  5
9CA
330
1F
100
AcDbEntity
  8
0
100
AcDbCircle
 10
4130.767335783015
 20
68.9980406512488
 30
50.0
 40
66.90239994471902
100
AcDbArc
 50
183.6645722661627
 51
229.0330845074056
  0
ARC
  5
9CB
330
1F
100
AcDbEntity
  8
0
100
AcDbCircle
 10
4080.649490099367
 20
-73.4860542208009
 30
50.0
 40
12.62455740015535
100
AcDbArc
 50
299.7007250194912
 51
105.2992749804851
  0
ARC
  5
9CC
330
1F
100
AcDbEntity
  8
0
100
AcDbCircle
 10
4082.614900760106
 20
62.82566476249411
 30
50.0
 40
18.70951842041637
100
AcDbArc
 50
95.81716811009725
 51
174.1828318898978
  0
ARC
  5
9CD
330
1F
100
AcDbEntity
  8
0
100
AcDbCircle
 10
4130.767335783011
 20
-134.9692819133969
 30
50.0
 40
66.90239994471693
100
AcDbArc
 50
130.9669154925945
 51
176.3354277338387
  0
ARC
  5
9CE
330
1F
100
AcDbEntity
  8
0
100
AcDbCircle
 10
4076.442524871358
 20
14.67322973960205
 30
50.0
 40
66.90239994470286
100
AcDbArc
 50
40.9669154925812
 51
86.33542773384043
  0
ARC
  5
9CF
330
1F
100
AcDbEntity
  8
0
100
AcDbCircle
 10
4082.6149007601
 20
-128.796906024649
 30
50.0
 40
18.70951842041025
100
AcDbArc
 50
185.8171681100893
 51
264.1828318898951
  0
ARC
  5
9D0
330
1F
100
AcDbEntity
  8
0
100
AcDbCircle
 10
4137.925752563949
 20
64.79107542322896
 30
50.0
 40
12.62455740015373
100
AcDbArc
 50
209.7007250195129
 51
15.29927498051034
  0
ARC
  5
9D1
330
1F
100
AcDbEntity
  8
0
100
AcDbCircle
 10
4076.442524871359
 20
-80.64447100175101
 30
50.0
 40
66.9023999447018
100
AcDbArc
 50
273.6645722661518
 51
319.033084507412
  0
ARC
  5
9D2
330
1F
100
AcDbEntity
  8
0
100
AcDbCircle
 10
4216.839628335981
 20
72.82761411253869
 30
50.0
 40
66.90239994471271
100
AcDbArc
 50
138.6645722661545
 51
184.0330845074097
  0
ARC
  5
9D3
330
1F
100
AcDbEntity
  8
0
100
AcDbCircle
 10
4137.925752563948
 20
-130.7623166853812
 30
50.0
 40
12.62455740015532
100
AcDbArc
 50
344.7007250195031
 51
150.2992749805019
  0
ARC
  5
9D4
330
1F
100
AcDbEntity
  8
0
100
AcDbCircle
 10
4178.426186153674
 20
102.5119986009128
 30
50.0
 40
18.70951842041421
100
AcDbArc
 50
50.81716811010771
 51
129.1828318898846
  0
ARC
  5
9D5
330
1F
100
AcDbEntity
  8
0
100
AcDbCircle
 10
4216.839628335981
 20
-138.7988553746875
 30
50.0
 40
66.9023999447112
100
AcDbArc
 50
175.9669154925912
 51
221.335427733844
  0
ARC
  5
9D6
330
1F
100
AcDbEntity
  8
0
100
AcDbCircle
 10
4140.012743971368
 20
72.82761411254018
 30
50.0
 40
66.90239994471098
100
AcDbArc
 50
355.9669154925903
 51
41.33542773384344
  0
ARC
  5
9D7
330
1F
100
AcDbEntity
  8
0
100
AcDbCircle
 10
4178.426186153676
 20
-168.4832398630619
 30
50.0
 40
18.70951842041349
100
AcDbArc
 50
230.8171681101063
 51
309.1828318898813
  0
ARC
  5
9D8
330
1F
100
AcDbEntity
  8
0
100
AcDbCircle
 10
4218.926619743401
 20
64.79107542323237
 30
50.0
 40
12.62455740015528
100
AcDbArc
 50
164.7007250194997
 51
330.2992749805032
  0
ARC
  5
9D9
330
1F
100
AcDbEntity
  8
0
100
AcDbCircle
 10
4140.012743971364
 20
-138.7988553746862
 30
50.0
 40
66.90239994471437
100
AcDbArc
 50
318.6645722661548
 51
4.033084507407833
  0
ARC
  5
9DA
330
1F
100
AcDbEntity
  8
0
100
AcDbCircle
 10
4280.409847435991
 20
14.67322973960096
 30
50.0
 40
66.90239994470312
100
AcDbArc
 50
93.66457226615176
 51
139.0330845074117
  0
ARC
  5
9DB
330
1F
100
AcDbEntity
  8
0
100
AcDbCircle
 10
4218.926619743398
 20
-130.7623166853778
 30
50.0
 40
12.62455740015364
100
AcDbArc
 50
29.70072501950934
 51
195.2992749805131
  0
ARC
  5
9DC
330
1F
100
AcDbEntity
  8
0
100
AcDbCircle
 10
4274.237471547248
 20
62.82566476250048
 30
50.0
 40
18.70951842041011
100
AcDbArc
 50
5.817168110089268
 51
84.18283188989239
  0
ARC
  5
9DD
330
1F
100
AcDbEntity
  8
0
100
AcDbCircle
 10
4280.409847435991
 20
-80.64447100175106
 30
50.0
 40
66.90239994470243
100
AcDbArc
 50
220.9669154925817
 51
266.3354277338403
  0
ARC
  5
9DE
330
1F
100
AcDbEntity
  8
0
100
AcDbCircle
 10
4226.085036524337
 20
68.99804065124823
 30
50.0
 40
66.90239994471664
100
AcDbArc
 50
310.9669154925954
 51
356.3354277338389
  0
ARC
  5
9DF
330
1F
100
AcDbEntity
  8
0
100
AcDbCircle
 10
4274.237471547244
 20
-128.7969060246436
 30
50.0
 40
18.70951842041547
100
AcDbArc
 50
275.8171681100947
 51
354.1828318899001
  0
ARC
  5
9E0
330
1F
100
AcDbEntity
  8
0
100
AcDbCircle
 10
4276.202882207981
 20
7.514812958652157
 30
50.0
 40
12.62455740015544
100
AcDbArc
 50
119.7007250194837
 51
285.299274980489
  0
ARC
  5
9E1
330
1F
100
AcDbEntity
  8
0
100
AcDbCircle
 10
4226.085036524334
 20
-134.9692819133974
 30
50.0
 40
66.90239994471887
100
AcDbArc
 50
3.664572266162865
 51
49.03308450740579
  0
ARC
  5
9E2
330
1F
100
AcDbEntity
  8
0
100
AcDbCircle
 10
4284.239420897288
 20
-71.39906281338051
 30
50.0
 40
66.90239994471108
100
AcDbArc
 50
48.6645722661619
 51
94.03308450741041
  0
ARC
  5
9E3
330
1F
100
AcDbEntity
  8
0
100
AcDbCircle
 10
4276.202882207981
 20
-73.48605422080033
 30
50.0
 40
12.62455740015492
100
AcDbArc
 50
74.70072501950186
 51
240.2992749805063
  0
ARC
  5
9E4
330
1F
100
AcDbEntity
  8
0
100
AcDbCircle
 10
4313.923805385658
 20
-32.98562063107562
 30
50.0
 40
18.70951842041618
100
AcDbArc
 50
320.8171681100943
 51
39.18283188990506
  0
ARC
  5
9E5
330
1F
100
AcDbEntity
  8
0
100
AcDbCircle
 10
4284.239420897288
 20
5.427821551235467
 30
50.0
 40
66.90239994471504
100
AcDbArc
 50
265.9669154925913
 51
311.3354277338374
  0
ARC
  5
9E6
330
1F
100
AcDbEntity
  8
0
100
AcDbCircle
 10
3820.180816434626
 20
-30.0154901946581
 30
30.0
 40
49.89204912110432
100
AcDbArc
 50
140.8171681101008
 51
219.1828318898991
  0
ARC
  5
9E7
330
1F
100
AcDbEntity
  8
0
100
AcDbCircle
 10
3899.339175070286
 20
72.42035562482477
 30
30.0
 40
178.4063998525644
100
AcDbArc
 50
228.6645722661588
 51
274.0330845074089
  0
ARC
  5
9E8
330
1F
100
AcDbEntity
  8
0
100
AcDbCircle
 10
3899.339175070286
 20
-132.4513360141436
 30
30.0
 40
178.4063998525654
100
AcDbArc
 50
85.96691549259043
 51
131.3354277338408
  0
ARC
  5
9E9
330
1F
100
AcDbEntity
  8
0
100
AcDbCircle
 10
3920.769944908439
 20
-138.0166464339277
 30
30.0
 40
33.66548640041299
100
AcDbArc
 50
299.7007250195008
 51
105.2992749804992
  0
ARC
  5
9EA
330
1F
100
AcDbEntity
  8
0
100
AcDbCircle
 10
3920.769944908439
 20
77.98566604460957
 30
30.0
 40
33.6654864004128
100
AcDbArc
 50
254.7007250195006
 51
60.29927498050067
  0
ARC
  5
9EB
330
1F
100
AcDbEntity
  8
0
100
AcDbCircle
 10
4054.417533398143
 20
-301.971920280844
 30
30.0
 40
178.4063998525628
100
AcDbArc
 50
130.9669154925903
 51
176.335427733841
  0
ARC
  5
9EC
330
1F
100
AcDbEntity
  8
0
100
AcDbCircle
 10
4054.417533398145
 20
241.9409398915272
 30
30.0
 40
178.4063998525653
100
AcDbArc
 50
183.6645722661589
 51
229.0330845074093
  0
ARC
  5
9ED
330
1F
100
AcDbEntity
  8
0
100
AcDbCircle
 10
3926.011040003737
 20
-285.5122512441791
 30
30.0
 40
49.89204912110545
100
AcDbArc
 50
185.8171681101016
 51
264.1828318898963
  0
ARC
  5
9EE
330
1F
100
AcDbEntity
  8
0
100
AcDbCircle
 10
3926.011040003737
 20
225.4812708548608
 30
30.0
 40
49.89204912110604
100
AcDbArc
 50
95.81716811010201
 51
174.1828318898969
  0
ARC
  5
9EF
330
1F
100
AcDbEntity
  8
0
100
AcDbCircle
 10
3909.55137096707
 20
-157.1057578497712
 30
30.0
 40
178.4063998525644
100
AcDbArc
 50
273.6645722661587
 51
319.0330845074095
  0
ARC
  5
9F0
330
1F
100
AcDbEntity
  8
0
100
AcDbCircle
 10
3909.551370967069
 20
97.07477746045325
 30
30.0
 40
178.4063998525649
100
AcDbArc
 50
40.96691549259037
 51
86.33542773384066
  0
ARC
  5
9F1
330
1F
100
AcDbEntity
  8
0
100
AcDbCircle
 10
4073.506644813988
 20
-290.753346339476
 30
30.0
 40
33.66548640041287
100
AcDbArc
 50
344.7007250195003
 51
150.2992749804997
  0
ARC
  5
9F2
330
1F
100
AcDbEntity
  8
0
100
AcDbCircle
 10
4073.506644813988
 20
230.7223659501582
 30
30.0
 40
33.66548640041299
100
AcDbArc
 50
209.7007250195003
 51
15.29927498049444
  0
ARC
  5
9F3
330
1F
100
AcDbEntity
  8
0
100
AcDbCircle
 10
4283.943646872734
 20
-312.1841161776316
 30
30.0
 40
178.4063998525582
100
AcDbArc
 50
175.9669154925895
 51
221.3354277338422
  0
ARC
  5
9F4
330
1F
100
AcDbEntity
  8
0
100
AcDbCircle
 10
4283.943646872739
 20
252.1531357883113
 30
30.0
 40
178.4063998525624
100
AcDbArc
 50
138.6645722661582
 51
184.0330845074104
  0
ARC
  5
9F5
330
1F
100
AcDbEntity
  8
0
100
AcDbCircle
 10
4181.507801053256
 20
-391.3424748132871
 30
30.0
 40
49.89204912110649
100
AcDbArc
 50
230.817168110105
 51
309.1828318898966
  0
ARC
  5
9F6
330
1F
100
AcDbEntity
  8
0
100
AcDbCircle
 10
4181.507801053257
 20
331.3114944239696
 30
30.0
 40
49.89204912110579
100
AcDbArc
 50
50.81716811010307
 51
129.1828318898962
  0
ARC
  5
9F7
330
1F
100
AcDbEntity
  8
0
100
AcDbCircle
 10
4079.071955233771
 20
-312.1841161776274
 30
30.0
 40
178.4063998525658
100
AcDbArc
 50
318.6645722661585
 51
4.033084507409032
  0
ARC
  5
9F8
330
1F
100
AcDbEntity
  8
0
100
AcDbCircle
 10
4079.071955233771
 20
252.1531357883124
 30
30.0
 40
178.4063998525645
100
AcDbArc
 50
355.9669154925903
 51
41.33542773384063
  0
ARC
  5
9F9
330
1F
100
AcDbEntity
  8
0
100
AcDbCircle
 10
4289.508957292524
 20
-290.7533463394758
 30
30.0
 40
33.66548640041258
100
AcDbArc
 50
29.70072501949815
 51
195.2992749804997
  0
ARC
  5
9FA
330
1F
100
AcDbEntity
  8
0
100
AcDbCircle
 10
4289.508957292524
 20
230.7223659501584
 30
30.0
 40
33.66548640041366
100
AcDbArc
 50
164.7007250194992
 51
330.2992749805005
  0
ARC
  5
9FB
330
1F
100
AcDbEntity
  8
0
100
AcDbCircle
 10
4453.464231139443
 20
-157.1057578497685
 30
30.0
 40
178.4063998525677
100
AcDbArc
 50
220.9669154925912
 51
266.3354277338405
  0
ARC
  5
9FC
330
1F
100
AcDbEntity
  8
0
100
AcDbCircle
 10
4453.464231139442
 20
97.07477746045586
 30
30.0
 40
178.4063998525618
100
AcDbArc
 50
93.66457226615898
 51
139.0330845074099
  0
ARC
  5
9FD
330
1F
100
AcDbEntity
  8
0
100
AcDbCircle
 10
4437.004562102776
 20
-285.5122512441795
 30
30.0
 40
49.8920491211053
100
AcDbArc
 50
275.8171681101021
 51
354.1828318898982
  0
ARC
  5
9FE
330
1F
100
AcDbEntity
  8
0
100
AcDbCircle
 10
4437.004562102776
 20
225.4812708548615
 30
30.0
 40
49.89204912110504
100
AcDbArc
 50
5.817168110101717
 51
84.18283188989788
  0
ARC
  5
9FF
330
1F
100
AcDbEntity
  8
0
100
AcDbCircle
 10
4308.598068708369
 20
-301.9719202808448
 30
30.0
 40
178.4063998525637
100
AcDbArc
 50
3.664572266158987
 51
49.03308450740981
  0
ARC
  5
A00
330
1F
100
AcDbEntity
  8
0
100
AcDbCircle
 10
4308.598068708369
 20
241.9409398915271
 30
30.0
 40
178.4063998525641
100
AcDbArc
 50
310.9669154925907
 51
356.3354277338409
  0
ARC
  5
A01
330
1F
100
AcDbEntity
  8
0
100
AcDbCircle
 10
4442.245657198073
 20
-138.0166464339273
 30
30.0
 40
33.66548640041303
100
AcDbArc
 50
74.70072501949831
 51
240.2992749805
  0
ARC
  5
A02
330
1F
100
AcDbEntity
  8
0
100
AcDbCircle
 10
4442.245657198073
 20
77.9856660446096
 30
30.0
 40
33.66548640041308
100
AcDbArc
 50
119.7007250194968
 51
285.2992749804998
  0
ARC
  5
A03
330
1F
100
AcDbEntity
  8
0
100
AcDbCircle
 10
4463.676427036227
 20
72.42035562482569
 30
30.0
 40
178.4063998525653
100
AcDbArc
 50
265.9669154925904
 51
311.3354277338405
  0
ARC
  5
A04
330
1F
100
AcDbEntity
  8
0
100
AcDbCircle
 10
4463.676427036225
 20
-132.451336014143
 30
30.0
 40
178.4063998525644
100
AcDbArc
 50
48.66457226615847
 51
94.03308450740931
  0
ARC
  5
A05
330
1F
100
AcDbEntity
  8
0
100
AcDbCircle
 10
4542.834785671886
 20
-30.01549019466008
 30
30.0
 40
49.89204912110462
100
AcDbArc
 50
320.8171681101017
 51
39.18283188989834
  0
ARC
  5
A06
330
1F
100
AcDbEntity
  8
0
100
AcDbCircle
 10
4463.676427036227
 20
72.42035562482569
 30
10.0
 40
178.4063998525653
100
AcDbArc
 50
265.9669154925904
 51
311.3354277338405
  0
ARC
  5
A07
330
1F
100
AcDbEntity
  8
0
100
AcDbCircle
 10
4542.834785671886
 20
-30.01549019466008
 30
10.0
 40
49.89204912110462
100
AcDbArc
 50
320.8171681101017
 51
39.18283188989834
  0
ARC
  5
A08
330
1F
100
AcDbEntity
  8
0
100
AcDbCircle
 10
4442.245657198073
 20
-138.0166464339273
 30
10.0
 40
33.66548640041303
100
AcDbArc
 50
74.70072501949831
 51
240.2992749805
  0
ARC
  5
A09
330
1F
100
AcDbEntity
  8
0
100
AcDbCircle
 10
4463.676427036225
 20
-132.451336014143
 30
10.0
 40
178.4063998525644
100
AcDbArc
 50
48.66457226615847
 51
94.03308450740931
  0
ARC
  5
A0A
330
1F
100
AcDbEntity
  8
0
100
AcDbCircle
 10
4308.598068708369
 20
-301.9719202808448
 30
10.0
 40
178.4063998525637
100
AcDbArc
 50
3.664572266158987
 51
49.03308450740981
  0
ARC
  5
A0B
330
1F
100
AcDbEntity
  8
0
100
AcDbCircle
 10
4442.245657198073
 20
77.9856660446096
 30
10.0
 40
33.66548640041308
100
AcDbArc
 50
119.7007250194968
 51
285.2992749804998
  0
ARC
  5
A0C
330
1F
100
AcDbEntity
  8
0
100
AcDbCircle
 10
4437.004562102776
 20
-285.5122512441795
 30
10.0
 40
49.8920491211053
100
AcDbArc
 50
275.8171681101021
 51
354.1828318898982
  0
ARC
  5
A0D
330
1F
100
AcDbEntity
  8
0
100
AcDbCircle
 10
4308.598068708369
 20
241.9409398915271
 30
10.0
 40
178.4063998525641
100
AcDbArc
 50
310.9669154925907
 51
356.3354277338409
  0
ARC
  5
A0E
330
1F
100
AcDbEntity
  8
0
100
AcDbCircle
 10
4453.464231139443
 20
-157.1057578497685
 30
10.0
 40
178.4063998525677
100
AcDbArc
 50
220.9669154925912
 51
266.3354277338405
  0
ARC
  5
A0F
330
1F
100
AcDbEntity
  8
0
100
AcDbCircle
 10
4437.004562102776
 20
225.4812708548615
 30
10.0
 40
49.89204912110504
100
AcDbArc
 50
5.817168110101717
 51
84.18283188989788
  0
ARC
  5
A10
330
1F
100
AcDbEntity
  8
0
100
AcDbCircle
 10
4289.508957292524
 20
-290.7533463394758
 30
10.0
 40
33.66548640041258
100
AcDbArc
 50
29.70072501949815
 51
195.2992749804997
  0
ARC
  5
A11
330
1F
100
AcDbEntity
  8
0
100
AcDbCircle
 10
4453.464231139442
 20
97.07477746045586
 30
10.0
 40
178.4063998525618
100
AcDbArc
 50
93.66457226615898
 51
139.0330845074099
  0
ARC
  5
A12
330
1F
100
AcDbEntity
  8
0
100
AcDbCircle
 10
4079.071955233771
 20
-312.1841161776274
 30
10.0
 40
178.4063998525658
100
AcDbArc
 50
318.6645722661585
 51
4.033084507409032
  0
ARC
  5
A13
330
1F
100
AcDbEntity
  8
0
100
AcDbCircle
 10
4289.508957292524
 20
230.7223659501584
 30
10.0
 40
33.66548640041366
100
AcDbArc
 50
164.7007250194992
 51
330.2992749805005
  0
ARC
  5
A14
330
1F
100
AcDbEntity
  8
0
100
AcDbCircle
 10
4181.507801053256
 20
-391.3424748132871
 30
10.0
 40
49.89204912110649
100
AcDbArc
 50
230.817168110105
 51
309.1828318898966
  0
ARC
  5
A15
330
1F
100
AcDbEntity
  8
0
100
AcDbCircle
 10
4079.071955233771
 20
252.1531357883124
 30
10.0
 40
178.4063998525645
100
AcDbArc
 50
355.9669154925903
 51
41.33542773384063
  0
ARC
  5
A16
330
1F
100
AcDbEntity
  8
0
100
AcDbCircle
 10
4283.943646872734
 20
-312.1841161776316
 30
10.0
 40
178.4063998525582
100
AcDbArc
 50
175.9669154925895
 51
221.3354277338422
  0
ARC
  5
A17
330
1F
100
AcDbEntity
  8
0
100
AcDbCircle
 10
4181.507801053257
 20
331.3114944239696
 30
10.0
 40
49.89204912110579
100
AcDbArc
 50
50.81716811010307
 51
129.1828318898962
  0
ARC
  5
A18
330
1F
100
AcDbEntity
  8
0
100
AcDbCircle
 10
4073.506644813988
 20
-290.753346339476
 30
10.0
 40
33.66548640041287
100
AcDbArc
 50
344.7007250195003
 51
150.2992749804997
  0
ARC
  5
A19
330
1F
100
AcDbEntity
  8
0
100
AcDbCircle
 10
4283.943646872739
 20
252.1531357883113
 30
10.0
 40
178.4063998525624
100
AcDbArc
 50
138.6645722661582
 51
184.0330845074104
  0
ARC
  5
A1A
330
1F
100
AcDbEntity
  8
0
100
AcDbCircle
 10
3909.55137096707
 20
-157.1057578497712
 30
10.0
 40
178.4063998525644
100
AcDbArc
 50
273.6645722661587
 51
319.0330845074095
  0
ARC
  5
A1B
330
1F
100
AcDbEntity
  8
0
100
AcDbCircle
 10
4073.506644813988
 20
230.7223659501582
 30
10.0
 40
33.66548640041299
100
AcDbArc
 50
209.7007250195003
 51
15.29927498049444
  0
ARC
  5
A1C
330
1F
100
AcDbEntity
  8
0
100
AcDbCircle
 10
3926.011040003737
 20
-285.5122512441791
 30
10.0
 40
49.89204912110545
100
AcDbArc
 50
185.8171681101016
 51
264.1828318898963
  0
ARC
  5
A1D
330
1F
100
AcDbEntity
  8
0
100
AcDbCircle
 10
3909.551370967069
 20
97.07477746045325
 30
10.0
 40
178.4063998525649
100
AcDbArc
 50
40.96691549259037
 51
86.33542773384066
  0
ARC
  5
A1E
330
1F
100
AcDbEntity
  8
0
100
AcDbCircle
 10
4054.417533398143
 20
-301.971920280844
 30
10.0
 40
178.4063998525628
100
AcDbArc
 50
130.9669154925903
 51
176.335427733841
  0
ARC
  5
A1F
330
1F
100
AcDbEntity
  8
0
100
AcDbCircle
 10
3926.011040003737
 20
225.4812708548608
 30
10.0
 40
49.89204912110604
100
AcDbArc
 50
95.81716811010201
 51
174.1828318898969
  0
ARC
  5
A20
330
1F
100
AcDbEntity
  8
0
100
AcDbCircle
 10
3920.769944908439
 20
-138.0166464339277
 30
10.0
 40
33.66548640041299
100
AcDbArc
 50
299.7007250195008
 51
105.2992749804992
  0
ARC
  5
A21
330
1F
100
AcDbEntity
  8
0
100
AcDbCircle
 10
4054.417533398145
 20
241.9409398915272
 30
10.0
 40
178.4063998525653
100
AcDbArc
 50
183.6645722661589
 51
229.0330845074093
  0
ARC
  5
A22
330
1F
100
AcDbEntity
  8
0
100
AcDbCircle
 10
3899.339175070286
 20
72.42035562482477
 30
10.0
 40
178.4063998525644
100
AcDbArc
 50
228.6645722661588
 51
274.0330845074089
  0
ARC
  5
A23
330
1F
100
AcDbEntity
  8
0
100
AcDbCircle
 10
3920.769944908439
 20
77.98566604460957
 30
10.0
 40
33.6654864004128
100
AcDbArc
 50
254.7007250195006
 51
60.29927498050067
  0
ARC
  5
A24
330
1F
100
AcDbEntity
  8
0
100
AcDbCircle
 10
3820.180816434626
 20
-30.0154901946581
 30
10.0
 40
49.89204912110432
100
AcDbArc
 50
140.8171681101008
 51
219.1828318898991
  0
ARC
  5
A25
330
1F
100
AcDbEntity
  8
0
100
AcDbCircle
 10
3899.339175070286
 20
-132.4513360141436
 30
10.0
 40
178.4063998525654
100
AcDbArc
 50
85.96691549259043
 51
131.3354277338408
  0
ARC
  5
A26
330
1F
100
AcDbEntity
  8
0
100
AcDbCircle
 10
4463.676427036227
 20
72.42035562482569
 30
0.0
 40
178.4063998525653
100
AcDbArc
 50
265.9669154925904
 51
311.3354277338405
  0
ARC
  5
A27
330
1F
100
AcDbEntity
  8
0
100
AcDbCircle
 10
4542.834785671886
 20
-30.01549019466008
 30
0.0
 40
49.89204912110462
100
AcDbArc
 50
320.8171681101017
 51
39.18283188989834
  0
ARC
  5
A28
330
1F
100
AcDbEntity
  8
0
100
AcDbCircle
 10
4442.245657198073
 20
-138.0166464339273
 30
0.0
 40
33.66548640041303
100
AcDbArc
 50
74.70072501949831
 51
240.2992749805
  0
ARC
  5
A29
330
1F
100
AcDbEntity
  8
0
100
AcDbCircle
 10
4463.676427036225
 20
-132.451336014143
 30
0.0
 40
178.4063998525644
100
AcDbArc
 50
48.66457226615847
 51
94.03308450740931
  0
ARC
  5
A2A
330
1F
100
AcDbEntity
  8
0
100
AcDbCircle
 10
4308.598068708369
 20
-301.9719202808448
 30
0.0
 40
178.4063998525637
100
AcDbArc
 50
3.664572266158987
 51
49.03308450740981
  0
ARC
  5
A2B
330
1F
100
AcDbEntity
  8
0
100
AcDbCircle
 10
4442.245657198073
 20
77.9856660446096
 30
0.0
 40
33.66548640041308
100
AcDbArc
 50
119.7007250194968
 51
285.2992749804998
  0
ARC
  5
A2C
330
1F
100
AcDbEntity
  8
0
100
AcDbCircle
 10
4437.004562102776
 20
-285.5122512441795
 30
0.0
 40
49.8920491211053
100
AcDbArc
 50
275.8171681101021
 51
354.1828318898982
  0
ARC
  5
A2D
330
1F
100
AcDbEntity
  8
0
100
AcDbCircle
 10
4308.598068708369
 20
241.9409398915271
 30
0.0
 40
178.4063998525641
100
AcDbArc
 50
310.9669154925907
 51
356.3354277338409
  0
ARC
  5
A2E
330
1F
100
AcDbEntity
  8
0
100
AcDbCircle
 10
4453.464231139443
 20
-157.1057578497685
 30
0.0
 40
178.4063998525677
100
AcDbArc
 50
220.9669154925912
 51
266.3354277338405
  0
ARC
  5
A2F
330
1F
100
AcDbEntity
  8
0
100
AcDbCircle
 10
4437.004562102776
 20
225.4812708548615
 30
0.0
 40
49.89204912110504
100
AcDbArc
 50
5.817168110101717
 51
84.18283188989788
  0
ARC
  5
A30
330
1F
100
AcDbEntity
  8
0
100
AcDbCircle
 10
4289.508957292524
 20
-290.7533463394758
 30
0.0
 40
33.66548640041258
100
AcDbArc
 50
29.70072501949815
 51
195.2992749804997
  0
ARC
  5
A31
330
1F
100
AcDbEntity
  8
0
100
AcDbCircle
 10
4453.464231139442
 20
97.07477746045586
 30
0.0
 40
178.4063998525618
100
AcDbArc
 50
93.66457226615898
 51
139.0330845074099
  0
ARC
  5
A32
330
1F
100
AcDbEntity
  8
0
100
AcDbCircle
 10
4079.071955233771
 20
-312.1841161776274
 30
0.0
 40
178.4063998525658
100
AcDbArc
 50
318.6645722661585
 51
4.033084507409032
  0
ARC
  5
A33
330
1F
100
AcDbEntity
  8
0
100
AcDbCircle
 10
4289.508957292524
 20
230.7223659501584
 30
0.0
 40
33.66548640041366
100
AcDbArc
 50
164.7007250194992
 51
330.2992749805005
  0
ARC
  5
A34
330
1F
100
AcDbEntity
  8
0
100
AcDbCircle
 10
4181.507801053256
 20
-391.3424748132871
 30
0.0
 40
49.89204912110649
100
AcDbArc
 50
230.817168110105
 51
309.1828318898966
  0
ARC
  5
A35
330
1F
100
AcDbEntity
  8
0
100
AcDbCircle
 10
4079.071955233771
 20
252.1531357883124
 30
0.0
 40
178.4063998525645
100
AcDbArc
 50
355.9669154925903
 51
41.33542773384063
  0
ARC
  5
A36
330
1F
100
AcDbEntity
  8
0
100
AcDbCircle
 10
4283.943646872734
 20
-312.1841161776316
 30
0.0
 40
178.4063998525582
100
AcDbArc
 50
175.9669154925895
 51
221.3354277338422
  0
ARC
  5
A37
330
1F
100
AcDbEntity
  8
0
100
AcDbCircle
 10
4181.507801053257
 20
331.3114944239696
 30
0.0
 40
49.89204912110579
100
AcDbArc
 50
50.81716811010307
 51
129.1828318898962
  0
ARC
  5
A38
330
1F
100
AcDbEntity
  8
0
100
AcDbCircle
 10
4073.506644813988
 20
-290.753346339476
 30
0.0
 40
33.66548640041287
100
AcDbArc
 50
344.7007250195003
 51
150.2992749804997
  0
ARC
  5
A39
330
1F
100
AcDbEntity
  8
0
100
AcDbCircle
 10
4283.943646872739
 20
252.1531357883113
 30
0.0
 40
178.4063998525624
100
AcDbArc
 50
138.6645722661582
 51
184.0330845074104
  0
ARC
  5
A3A
330
1F
100
AcDbEntity
  8
0
100
AcDbCircle
 10
3909.55137096707
 20
-157.1057578497712
 30
0.0
 40
178.4063998525644
100
AcDbArc
 50
273.6645722661587
 51
319.0330845074095
  0
ARC
  5
A3B
330
1F
100
AcDbEntity
  8
0
100
AcDbCircle
 10
4073.506644813988
 20
230.7223659501582
 30
0.0
 40
33.66548640041299
100
AcDbArc
 50
209.7007250195003
 51
15.29927498049444
  0
ARC
  5
A3C
330
1F
100
AcDbEntity
  8
0
100
AcDbCircle
 10
3926.011040003737
 20
-285.5122512441791
 30
0.0
 40
49.89204912110545
100
AcDbArc
 50
185.8171681101016
 51
264.1828318898963
  0
ARC
  5
A3D
330
1F
100
AcDbEntity
  8
0
100
AcDbCircle
 10
3909.551370967069
 20
97.07477746045325
 30
0.0
 40
178.4063998525649
100
AcDbArc
 50
40.96691549259037
 51
86.33542773384066
  0
ARC
  5
A3E
330
1F
100
AcDbEntity
  8
0
100
AcDbCircle
 10
4054.417533398143
 20
-301.971920280844
 30
0.0
 40
178.4063998525628
100
AcDbArc
 50
130.9669154925903
 51
176.335427733841
  0
ARC
  5
A3F
330
1F
100
AcDbEntity
  8
0
100
AcDbCircle
 10
3926.011040003737
 20
225.4812708548608
 30
0.0
 40
49.89204912110604
100
AcDbArc
 50
95.81716811010201
 51
174.1828318898969
  0
ARC
  5
A40
330
1F
100
AcDbEntity
  8
0
100
AcDbCircle
 10
3920.769944908439
 20
-138.0166464339277
 30
0.0
 40
33.66548640041299
100
AcDbArc
 50
299.7007250195008
 51
105.2992749804992
  0
ARC
  5
A41
330
1F
100
AcDbEntity
  8
0
100
AcDbCircle
 10
4054.417533398145
 20
241.9409398915272
 30
0.0
 40
178.4063998525653
100
AcDbArc
 50
183.6645722661589
 51
229.0330845074093
  0
ARC
  5
A42
330
1F
100
AcDbEntity
  8
0
100
AcDbCircle
 10
3899.339175070286
 20
72.42035562482477
 30
0.0
 40
178.4063998525644
100
AcDbArc
 50
228.6645722661588
 51
274.0330845074089
  0
ARC
  5
A43
330
1F
100
AcDbEntity
  8
0
100
AcDbCircle
 10
3920.769944908439
 20
77.98566604460957
 30
0.0
 40
33.6654864004128
100
AcDbArc
 50
254.7007250195006
 51
60.29927498050067
  0
ARC
  5
A44
330
1F
100
AcDbEntity
  8
0
100
AcDbCircle
 10
3820.180816434626
 20
-30.0154901946581
 30
0.0
 40
49.89204912110432
100
AcDbArc
 50
140.8171681101008
 51
219.1828318898991
  0
ARC
  5
A45
330
1F
100
AcDbEntity
  8
0
100
AcDbCircle
 10
3899.339175070286
 20
-132.4513360141436
 30
0.0
 40
178.4063998525654
100
AcDbArc
 50
85.96691549259043
 51
131.3354277338408
  0
ENDSEC
  0
SECTION
  2
OBJECTS
  0
DICTIONARY
  5
C
330
0
100
AcDbDictionary
281
     1
  3
ACAD_GROUP
350
D
  3
ACAD_LAYOUT
350
1A
  3
ACAD_MLINESTYLE
350
17
  3
ACAD_PLOTSETTINGS
350
19
  3
ACAD_PLOTSTYLENAME
350
E
  0
DICTIONARY
  5
D
102
{ACAD_REACTORS
330
C
102
}
330
C
100
AcDbDictionary
281
     1
  0
DICTIONARY
  5
1A
102
{ACAD_REACTORS
330
C
102
}
330
C
100
AcDbDictionary
281
     1
  3
Layout1
350
1E
  3
Layout2
350
26
  3
Model
350
22
  0
DICTIONARY
  5
17
102
{ACAD_REACTORS
330
C
102
}
330
C
100
AcDbDictionary
281
     1
  3
Standard
350
18
  0
DICTIONARY
  5
19
102
{ACAD_REACTORS
330
C
102
}
330
C
100
AcDbDictionary
281
     1
  0
ACDBDICTIONARYWDFLT
  5
E
102
{ACAD_REACTORS
330
C
102
}
330
C
100
AcDbDictionary
281
     1
  3
Normal
350
F
100
AcDbDictionaryWithDefault
340
F
  0
LAYOUT
  5
1E
102
{ACAD_REACTORS
330
1A
102
}
330
1A
100
AcDbPlotSettings
  1

  2
Canon BJC-1000SP
  4

  6

 40
0.0
 41
0.0
 42
0.0
 43
0.0
 44
0.0
 45
0.0
 46
0.0
 47
0.0
 48
0.0
 49
0.0
140
0.0
141
0.0
142
1.0
143
1.0
 70
   688
 72
     0
 73
     0
 74
     5
  7

 75
    16
147
1.0
148
0.0
149
0.0
100
AcDbLayout
  1
Layout1
 70
     1
 71
     1
 10
0.0
 20
0.0
 11
420.0
 21
297.0
 12
0.0
 22
0.0
 32
0.0
 14
1.000000000000000E+20
 24
1.000000000000000E+20
 34
1.000000000000000E+20
 15
-1.000000000000000E+20
 25
-1.000000000000000E+20
 35
-1.000000000000000E+20
146
0.0
 13
0.0
 23
0.0
 33
0.0
 16
1.0
 26
0.0
 36
0.0
 17
0.0
 27
1.0
 37
0.0
 76
     0
330
1B
  0
LAYOUT
  5
26
102
{ACAD_REACTORS
330
1A
102
}
330
1A
100
AcDbPlotSettings
  1

  2
Canon BJC-1000SP
  4

  6

 40
0.0
 41
0.0
 42
0.0
 43
0.0
 44
0.0
 45
0.0
 46
0.0
 47
0.0
 48
0.0
 49
0.0
140
0.0
141
0.0
142
1.0
143
1.0
 70
   688
 72
     0
 73
     0
 74
     5
  7

 75
    16
147
1.0
148
0.0
149
0.0
100
AcDbLayout
  1
Layout2
 70
     1
 71
     2
 10
0.0
 20
0.0
 11
12.0
 21
9.0
 12
0.0
 22
0.0
 32
0.0
 14
0.0
 24
0.0
 34
0.0
 15
0.0
 25
0.0
 35
0.0
146
0.0
 13
0.0
 23
0.0
 33
0.0
 16
1.0
 26
0.0
 36
0.0
 17
0.0
 27
1.0
 37
0.0
 76
     0
330
23
  0
LAYOUT
  5
22
102
{ACAD_REACTORS
330
1A
102
}
330
1A
100
AcDbPlotSettings
  1

  2
Canon BJC-1000SP
  4

  6

 40
0.0
 41
0.0
 42
0.0
 43
0.0
 44
0.0
 45
0.0
 46
0.0
 47
0.0
 48
0.0
 49
0.0
140
0.0
141
0.0
142
1.0
143
1.0
 70
  1712
 72
     0
 73
     0
 74
     0
  7

 75
     0
147
1.0
148
0.0
149
0.0
100
AcDbLayout
  1
Model
 70
     1
 71
     0
 10
0.0
 20
0.0
 11
12.0
 21
9.0
 12
0.0
 22
0.0
 32
0.0
 14
0.0
 24
0.0
 34
0.0
 15
0.0
 25
0.0
 35
0.0
146
0.0
 13
0.0
 23
0.0
 33
0.0
 16
1.0
 26
0.0
 36
0.0
 17
0.0
 27
1.0
 37
0.0
 76
     0
330
1F
  0
MLINESTYLE
  5
18
102
{ACAD_REACTORS
330
17
102
}
330
17
100
AcDbMlineStyle
  2
STANDARD
 70
     0
  3

 62
   256
 51
90.0
 52
90.0
 71
     2
 49
0.5
 62
   256
  6
BYLAYER
 49
-0.5
 62
   256
  6
BYLAYER
  0
ACDBPLACEHOLDER
  5
F
102
{ACAD_REACTORS
330
E
102
}
330
E
  0
ENDSEC
  0
EOF
